<?xml version="1.0" encoding="UTF-8"?>
<svg version="1.1" xmlns="http://www.w3.org/2000/svg" width="225" height="225">
<path d="M0 0 C74.25 0 148.5 0 225 0 C225 74.25 225 148.5 225 225 C150.75 225 76.5 225 0 225 C0 150.75 0 76.5 0 0 Z " fill="#000000" transform="translate(0,0)"/>
<path d="M0 0 C0.33 0 0.66 0 1 0 C1.58535417 11.03911596 2.0263533 22.07441985 2.2953043 33.12602139 C2.424574 38.26179302 2.59891282 43.38679349 2.88598633 48.51635742 C4.91510935 85.71749586 4.91510935 85.71749586 -6.29822254 98.28323841 C-11.64714986 103.82284267 -17.57128145 108.76062196 -24 113 C-24.33 113 -24.66 113 -25 113 C-25.20474001 109.31332998 -25.32809831 105.62813257 -25.4375 101.9375 C-25.49615234 100.89916016 -25.55480469 99.86082031 -25.61523438 98.79101562 C-25.78896754 90.97302325 -25.78896754 90.97302325 -23.42602539 88.05883789 C-22.14874077 86.96288915 -20.86474535 85.87471039 -19.57397461 84.79467773 C-16.51116975 81.30240558 -17.27710273 76.95314393 -17.5625 72.5625 C-17.64301011 70.85680409 -17.72088272 69.15098238 -17.79663086 67.44506836 C-17.83501572 66.60608505 -17.87340057 65.76710175 -17.91294861 64.9026947 C-17.95603905 63.96086082 -17.95603905 63.96086082 -18 63 C-30.3346543 75.4187108 -30.33057915 88.79144344 -30.33491707 105.27667809 C-30.31786998 108.67512908 -30.26934803 112.07279001 -30.21887207 115.47088623 C-30.16619651 119.8223587 -30.17683795 124.17366924 -30.18164062 128.52539062 C-30.18193754 137.01798748 -30.11361552 145.50816535 -30 154 C-32.46805259 151.53194741 -33.17278692 149.33393354 -34.42578125 146.07421875 C-34.89306641 144.88505859 -35.36035156 143.69589844 -35.84179688 142.47070312 C-36.57773 140.58351313 -37.30961984 138.69503369 -38.03295898 136.80297852 C-38.73549022 134.97217588 -39.45548845 133.14810655 -40.17578125 131.32421875 C-40.59770752 130.23197998 -41.01963379 129.13974121 -41.4543457 128.0144043 C-43.5275277 123.97119183 -46.25384036 121.13919731 -50.07478333 118.64640808 C-53.26595775 116.23757203 -55.55392309 114.03252863 -56.43814087 110.00363159 C-57.15042816 103.72106349 -56.91608048 97.40287979 -56.78125 91.09375 C-56.76631555 89.04254366 -56.75493422 86.99130864 -56.74694824 84.94006348 C-56.71650907 79.5602234 -56.63801669 74.18213136 -56.54931641 68.80297852 C-56.46724749 63.30639286 -56.43089184 57.8095227 -56.390625 52.3125 C-56.30501469 41.5409017 -56.16860719 30.77059662 -56 20 C-53.16697882 23.58735289 -51.60851565 27.22867322 -50.08203125 31.50390625 C-49.81992355 32.22360092 -49.55781586 32.94329559 -49.2877655 33.68479919 C-48.73746437 35.20070426 -48.19051574 36.71783006 -47.64672852 38.23608398 C-46.81301176 40.56107284 -45.96691283 42.88127626 -45.11914062 45.20117188 C-44.58519698 46.6768156 -44.05196904 48.15271852 -43.51953125 49.62890625 C-43.26645706 50.32270889 -43.01338287 51.01651154 -42.75263977 51.7313385 C-41.72092695 54.62891732 -41 56.89857971 -41 60 C-40.52183838 59.57879883 -40.04367676 59.15759766 -39.55102539 58.72363281 C-38.88578857 58.13936523 -38.22055176 57.55509766 -37.53515625 56.953125 C-36.80184082 56.30794922 -36.06852539 55.66277344 -35.31298828 54.99804688 C-33.85929528 53.74229181 -32.3883767 52.50593657 -30.89404297 51.29882812 C-13.93792588 37.56242796 -7.42443174 19.91475091 0 0 Z " fill="#FBFBFB" transform="translate(172,41)"/>
<path d="M0 0 C2.55129876 2.55129876 3.50003049 5.39897982 4.79296875 8.6953125 C5.3463524 10.06536803 5.9004115 11.43515089 6.45507812 12.8046875 C7.31984522 14.95428628 8.17978211 17.10536995 9.02758789 19.26171875 C12.30507761 27.56917145 15.43181411 34.73255059 22 41 C23.51732486 42.56081132 25.0342284 44.1220323 26.55078125 45.68359375 C28.13541022 47.27083977 29.72267964 48.85545382 31.3125 50.4375 C32.12267578 51.25154297 32.93285156 52.06558594 33.76757812 52.90429688 C34.54166016 53.67708984 35.31574219 54.44988281 36.11328125 55.24609375 C36.81235596 55.94404053 37.51143066 56.6419873 38.23168945 57.36108398 C39.91392168 59.07362678 39.91392168 59.07362678 42 60 C42.20367187 58.85660156 42.40734375 57.71320313 42.6171875 56.53515625 C44.30879025 48.92294389 47.34216558 41.70254236 50.125 34.4375 C50.69457304 32.93706241 51.26358824 31.43641294 51.83203125 29.93554688 C53.2149314 26.28788863 54.60536059 22.64318514 56 19 C56.33 19 56.66 19 57 19 C57.30237002 30.77006805 57.53277211 42.53919987 57.67355824 54.31237316 C57.74116199 59.78053477 57.83270574 65.24602335 57.98071289 70.71264648 C58.1228838 75.9973112 58.19987795 81.2794206 58.23340416 86.56585121 C58.25726554 88.57347133 58.30386628 90.58096496 58.37449074 92.58748436 C58.93495583 109.18428698 58.93495583 109.18428698 54.15629578 114.94062805 C51.96995495 117.21539373 49.65037091 119.18785413 47.17944336 121.14355469 C41.46303979 125.78226596 39.54348671 133.07912754 37.1875 139.8125 C36.67187963 141.19978368 36.15300689 142.58586294 35.63085938 143.97070312 C34.38304302 147.30086497 33.17906863 150.64478289 32 154 C31.67 154 31.34 154 31 154 C31.01411926 153.11289337 31.02823853 152.22578674 31.04278564 151.3117981 C31.16623043 142.86999638 31.23018378 134.43015144 31.23059464 125.98741341 C31.23281636 121.64860534 31.25645255 117.31231271 31.33251953 112.97412109 C32.32686241 86.98988502 32.32686241 86.98988502 20.58105469 64.59716797 C19.72930664 63.74010254 18.87755859 62.88303711 18 62 C17.96716919 62.6237854 17.93433838 63.2475708 17.9005127 63.89025879 C17.85664429 64.72375854 17.81277588 65.5572583 17.76757812 66.41601562 C17.70098999 67.71986206 17.70098999 67.71986206 17.63305664 69.05004883 C17.53535407 70.84903102 17.4140113 72.64676962 17.27929688 74.44335938 C17.13901823 79.68385855 17.13901823 79.68385855 19.79882812 84.01953125 C20.52521484 84.64214844 21.25160156 85.26476562 22 85.90625 C24.6191749 88.20006156 25.84702085 89.3549455 26.65820312 92.77539062 C26.78416505 95.88445085 26.70205585 98.89533418 26.5 102 C26.46390625 103.06089844 26.4278125 104.12179688 26.390625 105.21484375 C26.29697151 107.81372807 26.16602484 110.40490402 26 113 C24.57264526 111.73313354 24.57264526 111.73313354 23.11645508 110.44067383 C20.27604562 107.97443666 17.34901088 105.901519 14.2019043 103.84643555 C6.81384723 98.48030606 0.62348154 92.63082422 -1.00482178 83.38140869 C-2.54328742 70.98272829 -1.82696805 58.34771407 -1.30462646 45.9019165 C-1.10819177 40.72060592 -1.02305697 35.53749743 -0.92773438 30.35351562 C-0.72559417 20.23098965 -0.40256141 10.1164032 0 0 Z " fill="#FCFCFC" transform="translate(52,41)"/>
<path d="M0 0 C0.33 0 0.66 0 1 0 C1 29.04 1 58.08 1 88 C0.67 88 0.34 88 0 88 C-0.01030746 86.99188766 -0.02061493 85.98377533 -0.03123474 84.94511414 C-0.12890445 75.45407472 -0.23163245 65.96310181 -0.33933926 56.47217083 C-0.39455176 51.59255425 -0.44796915 46.71293167 -0.49731445 41.83325195 C-0.54498259 37.12590583 -0.5973264 32.418633 -0.65294075 27.71137428 C-0.67335318 25.91362134 -0.6920681 24.11584831 -0.70907402 22.31805992 C-0.73314258 19.80400697 -0.76319386 17.29009252 -0.79467773 14.77612305 C-0.8004332 14.02949905 -0.80618866 13.28287506 -0.81211853 12.5136261 C-0.85638576 9.41287071 -1.01190669 6.96427994 -2 4 C-1.0625 1.8125 -1.0625 1.8125 0 0 Z " fill="#E8E8E8" transform="translate(172,41)"/>
</svg>
